<svg width="64" height="64" viewBox="0 0 64 64" fill="none" xmlns="http://www.w3.org/2000/svg">
<path d="M58 21.3279C58 22.4213 57.0933 23.3279 56 23.3279H7.99998C6.90665 23.3279 5.99998 22.4213 5.99998 21.3279C5.99998 20.2346 6.90665 19.3279 7.99998 19.3279H10.72L11.7333 14.5013C12.6933 9.83459 14.6933 5.54126 22.64 5.54126H41.36C49.3066 5.54126 51.3066 9.83459 52.2667 14.5013L53.28 19.3279H56C57.0933 19.3279 58 20.2346 58 21.3279ZM59.152 36.4266C58.752 32.0266 57.5786 27.3333 49.0187 27.3333H14.9893C6.42932 27.3333 5.28265 32.0266 4.85598 36.4266L3.36265 52.6666C3.17598 54.6933 3.84265 56.7199 5.22932 58.2399C6.64265 59.7866 8.64265 60.6666 10.776 60.6666H15.7893C20.1093 60.6666 20.936 58.1866 21.4693 56.5599L22.0026 54.9599C22.616 53.1199 22.776 52.6666 25.176 52.6666H38.8293C41.2293 52.6666 41.3093 52.9333 42.0026 54.9599L42.536 56.5599C43.0693 58.1866 43.896 60.6666 48.216 60.6666H53.2293C55.336 60.6666 57.3626 59.7866 58.776 58.2399C60.1626 56.7199 60.8293 54.6933 60.6426 52.6666L59.1493 36.4266H59.152ZM24.0053 41.9999H16.0053C14.912 41.9999 14.0053 41.0933 14.0053 39.9999C14.0053 38.9066 14.912 37.9999 16.0053 37.9999H24.0053C25.0986 37.9999 26.0053 38.9066 26.0053 39.9999C26.0053 41.0933 25.0986 41.9999 24.0053 41.9999ZM48.0053 41.9999H40.0053C38.912 41.9999 38.0053 41.0933 38.0053 39.9999C38.0053 38.9066 38.912 37.9999 40.0053 37.9999H48.0053C49.0987 37.9999 50.0053 38.9066 50.0053 39.9999C50.0053 41.0933 49.0987 41.9999 48.0053 41.9999Z" fill="white"/>
</svg>
