<svg width="64" height="64" viewBox="0 0 64 64" fill="none" xmlns="http://www.w3.org/2000/svg">
<path d="M53.464 28.344L41.0107 22.984L38.2373 21.8106C38.0102 21.6848 37.8181 21.5043 37.6784 21.2854C37.5387 21.0666 37.4558 20.8163 37.4373 20.5573V12.3973C37.4373 9.83731 35.544 6.79731 33.2507 5.62397C32.4507 5.22397 31.4907 5.22397 30.6907 5.62397C28.424 6.79731 26.5307 9.86397 26.5307 12.424V20.584C26.5307 21.064 26.1573 21.624 25.7307 21.8373L10.5307 28.3706C8.85066 29.064 7.49066 31.1706 7.49066 32.984V36.504C7.49066 38.7706 9.19733 39.8906 11.304 38.984L24.664 33.224C25.704 32.7706 26.5573 33.3306 26.5573 34.4773V42.2373C26.5573 42.8506 26.2107 43.7306 25.784 44.1573L19.5973 50.3706C18.9573 51.0106 18.664 52.264 18.9573 53.1706L20.1573 56.7973C20.6373 58.3706 22.424 59.1173 23.8907 58.3706L30.2373 53.0373C31.1973 52.2106 32.7707 52.2106 33.7307 53.0373L40.0773 58.3706C41.544 59.0906 43.3307 58.3706 43.864 56.7973L45.064 53.1706C45.3573 52.2906 45.064 51.0106 44.424 50.3706L38.2373 44.1573C37.784 43.7306 37.4373 42.8506 37.4373 42.2373V34.4773C37.4373 33.3306 38.264 32.7973 39.3307 33.224L52.6907 38.984C54.7973 39.8906 56.504 38.7706 56.504 36.504V32.984C56.504 31.1706 55.144 29.064 53.464 28.344Z" fill="white"/>
</svg>
