<svg width="25" height="24" viewBox="0 0 25 24" fill="none" xmlns="http://www.w3.org/2000/svg">
<path opacity="0.4" d="M16.392 2H8.02201C4.38201 2 2.21201 4.17 2.21201 7.81V16.18C2.21201 19.82 4.38201 21.99 8.02201 21.99H16.392C20.032 21.99 22.202 19.82 22.202 16.18V7.81C22.202 4.17 20.032 2 16.392 2Z" fill="#878F96"/>
<path d="M10.31 11.152H7.66002C7.03002 11.152 6.52002 11.662 6.52002 12.292V17.412H10.31V11.152Z" fill="#878F96"/>
<path opacity="0.4" d="M12.962 6.60201H11.442C10.812 6.60201 10.302 7.112 10.302 7.742V17.402H14.092V7.742C14.092 7.112 13.592 6.60201 12.962 6.60201Z" fill="#878F96"/>
<path d="M16.748 12.852H14.098V17.402H17.888V13.992C17.878 13.362 17.368 12.852 16.748 12.852Z" fill="#878F96"/>
</svg>
