<svg width="25" height="24" viewBox="0 0 25 24" fill="none" xmlns="http://www.w3.org/2000/svg">
<path opacity="0.4" d="M12.6 22C18.123 22 22.6 17.523 22.6 12C22.6 6.477 18.123 2 12.6 2C7.07701 2 2.60001 6.477 2.60001 12C2.60001 17.523 7.07701 22 12.6 22Z" fill="#878F96"/>
<path d="M17.347 7H12.517C12.107 7 11.767 7.34 11.767 7.75C11.767 8.16 12.107 8.5 12.517 8.5H15.537L7.81702 16.22C7.52702 16.51 7.52702 16.99 7.81702 17.28C7.96702 17.43 8.15702 17.5 8.34702 17.5C8.53702 17.5 8.72702 17.43 8.87702 17.28L16.597 9.56V12.58C16.597 12.99 16.937 13.33 17.347 13.33C17.757 13.33 18.097 12.99 18.097 12.58V7.75C18.097 7.34 17.757 7 17.347 7Z" fill="#878F96"/>
</svg>
