<svg width="390" height="844" viewBox="0 0 390 844" fill="none" xmlns="http://www.w3.org/2000/svg">
<g clip-path="url(#clip0_17_4520)">
<path d="M-117 514.5L-122 491L-161 890.5L346.5 956.5L691 825.5L893 618.5L825 318L818 437.5L799.5 358L784 407.5L775 451.5L766 447.5H756.5L750.5 459.5L742 506.5L733 454.5L725 506.5L715 498L708 483L699.5 485L691 430.5L682.5 418.5L674 422.5L657.5 506.5L641 384L631.5 364L624.5 374.5L613.5 377L608 353.5L598 344L589.5 309L580.5 334.5L572.5 374.5L556.5 325.5L546 340.5L539.5 237.5L532 304L522 334.5L514.5 318L505.5 334.5L490.5 297L481 307L454.5 237.5L447.5 170L440 196L430 200L421.5 196L404.5 127.5L397 121L387.5 138L380 136L371.5 146L363 187.5L355.5 178.5L346.5 223.5H334L313.5 210.5L305 275.5L287.5 249L280.5 304L269 307L261.5 364L238 326L221 367.5L211.5 413L203.5 380.5L195 395L186 430.5L178 426.5L169.5 436L160.5 413L152.5 418.5L145.5 456L137 471.5L121 523L111.5 495.5L103 514.5L93 471.5H86L68.5 535L60.5 530.5L51.5 577.5L44 591.5L34 535L29 563L18 573L-7 403.5L-15.5 395L-24 423L-33 430.5L-40 369.5L-47 392.5L-56.5 395L-66.5 384L-73 446.5L-83.5 482.5H-90L-99.5 453L-107.5 511L-117 514.5Z" fill="url(#paint0_linear_17_4520)" stroke="#21B580" stroke-width="3"/>
<g filter="url(#filter0_b_17_4520)">
<path fill-rule="evenodd" clip-rule="evenodd" d="M194.959 309.24L220.573 324.029L215.27 333.214L200.262 324.549V433.451L244.767 407.756V350.244L226.247 339.551L231.55 330.366L255.373 344.12V413.88L194.959 448.76L134.545 413.88V344.12L155.186 332.203L160.489 341.388L145.151 350.244V407.756L189.656 433.451V324.549L174.648 333.214L169.345 324.029L194.959 309.24ZM170.565 353.015V404.455H159.959V353.015H170.565ZM227.818 353.015V404.455H217.211V353.015H227.818Z" fill="white"/>
</g>
</g>
<defs>
<filter id="filter0_b_17_4520" x="-16" y="269" width="422" height="220" filterUnits="userSpaceOnUse" color-interpolation-filters="sRGB">
<feFlood flood-opacity="0" result="BackgroundImageFix"/>
<feGaussianBlur in="BackgroundImageFix" stdDeviation="20"/>
<feComposite in2="SourceAlpha" operator="in" result="effect1_backgroundBlur_17_4520"/>
<feBlend mode="normal" in="SourceGraphic" in2="effect1_backgroundBlur_17_4520" result="shape"/>
</filter>
<linearGradient id="paint0_linear_17_4520" x1="366" y1="38.5" x2="366" y2="956.5" gradientUnits="userSpaceOnUse">
<stop stop-color="#1FCFAF" stop-opacity="0.3"/>
<stop offset="0.739583" stop-color="#1FCFAF" stop-opacity="0"/>
</linearGradient>
<clipPath id="clip0_17_4520">
<rect width="390" height="844" fill="white"/>
</clipPath>
</defs>
</svg>
