<svg width="64" height="64" viewBox="0 0 64 64" fill="none" xmlns="http://www.w3.org/2000/svg">
<path d="M27.3333 26.7467C27.3333 28.1867 27.7333 28.4001 28.64 28.7201L30 29.2001V24.6667H29.2C28.1867 24.6667 27.3333 25.6001 27.3333 26.7467ZM34 39.3334H34.8C35.84 39.3334 36.6667 38.4001 36.6667 37.2534C36.6667 35.8134 36.2667 35.6001 35.36 35.2801L34 34.8001V39.3334Z" fill="#B52156"/>
<path d="M52.2133 14.6133L46.7467 20.0799C46.3467 20.4799 45.84 20.6666 45.3333 20.6666C44.8267 20.6666 44.32 20.4799 43.92 20.0799C43.5481 19.7036 43.3395 19.1957 43.3395 18.6666C43.3395 18.1374 43.5481 17.6296 43.92 17.2533L49.3867 11.7866C44.6933 7.78659 38.64 5.33325 32 5.33325C17.28 5.33325 5.33334 17.2799 5.33334 31.9999C5.33334 46.7199 17.28 58.6666 32 58.6666C46.72 58.6666 58.6667 46.7199 58.6667 31.9999C58.6667 25.3599 56.2133 19.3066 52.2133 14.6133ZM36.6667 31.5199C38.3733 32.1332 40.6667 33.3599 40.6667 37.2799C40.6667 40.6132 38.0267 43.3599 34.8 43.3599H34V44.0266C34 45.1199 33.0933 46.0266 32 46.0266C30.9067 46.0266 30 45.1199 30 44.0266V43.3599H29.7867C26.24 43.3599 23.3333 40.3732 23.3333 36.6932C23.3333 35.5732 24.24 34.6666 25.3333 34.6666C26.4267 34.6666 27.3333 35.5732 27.3333 36.6666C27.3333 38.1333 28.4267 39.3332 29.7867 39.3332H30V33.4132L27.3333 32.4799C25.6267 31.8666 23.3333 30.6399 23.3333 26.7199C23.3333 23.3866 25.9733 20.6399 29.2 20.6399H30V19.9999C30 18.9066 30.9067 17.9999 32 17.9999C33.0933 17.9999 34 18.9066 34 19.9999V20.6666H34.2133C37.76 20.6666 40.6667 23.6533 40.6667 27.3333C40.6667 28.4266 39.76 29.3333 38.6667 29.3333C37.5733 29.3333 36.6667 28.4266 36.6667 27.3333C36.6667 25.8666 35.5733 24.6666 34.2133 24.6666H34V30.5866L36.6667 31.5199ZM60.5067 4.55992C60.2958 4.06884 59.9044 3.67746 59.4133 3.46659C59.1735 3.38139 58.9212 3.33634 58.6667 3.33325H48C46.9067 3.33325 46 4.23992 46 5.33325C46 6.42659 46.9067 7.33325 48 7.33325H53.84L49.3867 11.7866C50.4 12.6666 51.3333 13.5999 52.2133 14.6133L56.6667 10.1599V15.9999C56.6667 17.0933 57.5733 17.9999 58.6667 17.9999C59.76 17.9999 60.6667 17.0933 60.6667 15.9999V5.33325C60.6667 5.06659 60.6133 4.82659 60.5067 4.55992Z" fill="#B52156"/>
</svg>
