<svg width="243" height="243" viewBox="0 0 243 243" fill="none" xmlns="http://www.w3.org/2000/svg">
<rect width="243" height="243" rx="45.5625" fill="white" fill-opacity="0.06"/>
<circle cx="121.5" cy="125.297" r="74.0391" fill="#21B580"/>
<path d="M192.91 115.23C195.139 114.975 197.164 116.575 197.299 118.814C198.218 134.007 194.551 149.16 186.724 162.287C178.203 176.579 165.224 187.676 149.781 193.873C134.339 200.07 117.289 201.023 101.252 196.587C85.2148 192.15 71.0791 182.569 61.0177 169.316C50.9563 156.063 45.5264 139.872 45.5627 123.233C45.599 106.594 51.0994 90.4267 61.2185 77.2179C71.3376 64.009 85.515 54.4894 101.571 50.1226C116.318 46.1119 131.9 46.6518 146.286 51.6198C148.406 52.3521 149.404 54.7326 148.559 56.8109C147.715 58.8892 145.348 59.877 143.223 59.1583C130.491 54.8524 116.732 54.4183 103.703 57.9617C89.3647 61.8614 76.704 70.3626 67.6675 82.1583C58.631 93.9541 53.7189 108.391 53.6865 123.251C53.6541 138.11 58.5032 152.568 67.4881 164.403C76.4731 176.238 89.0966 184.795 103.418 188.757C117.739 192.719 132.965 191.868 146.756 186.334C160.546 180.8 172.137 170.889 179.747 158.126C186.661 146.529 189.94 133.16 189.215 119.739C189.094 117.498 190.681 115.485 192.91 115.23Z" fill="#F1F1F1"/>
<path fill-rule="evenodd" clip-rule="evenodd" d="M174.656 60.75C174.656 58.653 172.956 56.9531 170.859 56.9531C168.762 56.9531 167.062 58.653 167.062 60.75V74.0391H153.773C151.676 74.0391 149.977 75.739 149.977 77.8359C149.977 79.9329 151.676 81.6328 153.773 81.6328H167.063V94.9219C167.063 97.0188 168.762 98.7188 170.859 98.7188C172.956 98.7188 174.656 97.0188 174.656 94.9219V81.6328H187.945C190.042 81.6328 191.742 79.9329 191.742 77.8359C191.742 75.739 190.042 74.0391 187.945 74.0391H174.656V60.75Z" fill="#F1F1F1"/>
<path d="M121.127 163.266C119.913 163.266 118.921 162.846 118.149 162.008C117.377 161.225 116.991 160.247 116.991 159.073V153.372C113.628 153.149 110.623 152.618 107.976 151.779C105.384 150.885 103.151 149.907 101.276 148.845C100.008 148.118 99.2086 147.14 98.8778 145.91C98.6021 144.681 98.6848 143.507 99.1259 142.389C99.567 141.271 100.311 140.488 101.359 140.041C102.407 139.594 103.647 139.79 105.081 140.628C106.625 141.522 108.637 142.389 111.119 143.227C113.655 144.01 116.688 144.401 120.217 144.401C124.352 144.401 127.33 143.674 129.149 142.221C130.969 140.712 131.879 138.839 131.879 136.604C131.879 134.759 131.245 133.25 129.976 132.076C128.708 130.902 126.448 129.952 123.194 129.226L114.427 127.297C104.447 125.117 99.4568 119.807 99.4568 111.367C99.4568 106.672 101.028 102.731 104.171 99.5452C107.369 96.3033 111.643 94.347 116.991 93.6762V87.7234C116.991 86.5496 117.377 85.5714 118.149 84.7889C118.921 83.9505 119.913 83.5312 121.127 83.5312C122.284 83.5312 123.249 83.9505 124.021 84.7889C124.848 85.5714 125.262 86.5496 125.262 87.7234V93.5924C127.468 93.816 129.783 94.347 132.21 95.1854C134.691 96.0238 136.841 97.1697 138.661 98.6229C139.709 99.4614 140.315 100.44 140.481 101.557C140.646 102.619 140.453 103.626 139.902 104.576C139.405 105.47 138.606 106.085 137.503 106.42C136.455 106.7 135.215 106.42 133.781 105.582C132.182 104.632 130.39 103.877 128.405 103.318C126.42 102.703 124.049 102.396 121.292 102.396C117.763 102.396 114.979 103.206 112.938 104.827C110.953 106.392 109.961 108.46 109.961 111.032C109.961 112.932 110.567 114.469 111.78 115.643C112.994 116.761 115.061 117.655 117.984 118.326L126.999 120.338C132.292 121.512 136.18 123.384 138.661 125.956C141.142 128.471 142.383 131.797 142.383 135.933C142.383 140.628 140.784 144.485 137.586 147.503C134.443 150.466 130.335 152.338 125.262 153.121V159.073C125.262 160.247 124.876 161.225 124.104 162.008C123.332 162.846 122.34 163.266 121.127 163.266Z" fill="white"/>
</svg>
