<svg width="24" height="24" viewBox="0 0 24 24" fill="none" xmlns="http://www.w3.org/2000/svg">
<path d="M17.868 21.872C17.558 21.872 17.248 21.792 16.968 21.622L12.958 19.242C12.538 19.232 12.118 19.202 11.718 19.142C11.5844 19.1225 11.4583 19.0677 11.3529 18.9834C11.2474 18.899 11.1663 18.7881 11.118 18.662C11.018 18.402 11.068 18.122 11.248 17.912C11.908 17.142 12.248 16.222 12.248 15.242C12.248 12.822 10.118 10.852 7.498 10.852C6.518 10.852 5.578 11.122 4.788 11.642C4.68051 11.7107 4.5574 11.7512 4.43008 11.7597C4.30276 11.7682 4.17535 11.7445 4.05967 11.6906C3.94399 11.6368 3.84377 11.5546 3.76831 11.4517C3.69285 11.3488 3.64459 11.2285 3.628 11.102C3.59611 10.8197 3.57942 10.536 3.578 10.252C3.578 5.29196 7.878 1.26196 13.158 1.26196C18.438 1.26196 22.738 5.29196 22.738 10.252C22.738 12.972 21.478 15.472 19.258 17.182L19.598 19.902C19.6288 20.1478 19.6072 20.3974 19.5344 20.6343C19.4617 20.8711 19.3396 21.0899 19.1761 21.276C19.0126 21.4622 18.8114 21.6116 18.586 21.7143C18.3605 21.8171 18.1158 21.8708 17.868 21.872ZM13.148 17.732C13.288 17.722 13.428 17.762 13.548 17.842L17.738 20.332C17.848 20.402 17.938 20.372 17.998 20.332C18.048 20.302 18.128 20.222 18.108 20.082L17.718 16.922C17.688 16.642 17.808 16.372 18.028 16.212C20.068 14.782 21.238 12.602 21.238 10.232C21.238 6.10196 17.618 2.74196 13.158 2.74196C8.868 2.74196 5.348 5.86196 5.088 9.78196C5.838 9.49196 6.648 9.33196 7.488 9.33196C10.938 9.33196 13.738 11.972 13.738 15.222C13.748 16.102 13.538 16.952 13.148 17.732Z" fill="#21B580"/>
<path d="M4.57806 22.75C4.31806 22.75 4.06806 22.68 3.83806 22.53C3.61907 22.392 3.44366 22.1947 3.33216 21.9611C3.22066 21.7275 3.17763 21.4671 3.20806 21.21L3.40806 19.67C2.05806 18.57 1.25806 16.94 1.25806 15.23C1.25806 13.28 2.27806 11.46 3.98806 10.37C5.03685 9.69298 6.25973 9.33515 7.50806 9.34001C10.9581 9.34001 13.7581 11.98 13.7581 15.23C13.7581 16.55 13.2781 17.85 12.3981 18.88C11.2681 20.25 9.57806 21.05 7.71806 21.11L5.27806 22.56C5.05806 22.69 4.81806 22.75 4.57806 22.75ZM7.49806 10.84C6.51806 10.84 5.57806 11.11 4.78806 11.63C3.50806 12.45 2.74806 13.79 2.74806 15.23C2.74806 16.62 3.42806 17.89 4.62806 18.71C4.85806 18.87 4.97806 19.14 4.94806 19.42L4.72806 21.13L7.11806 19.71C7.23806 19.64 7.36806 19.6 7.49806 19.6C8.96806 19.6 10.3581 18.97 11.2381 17.9C11.8981 17.12 12.2481 16.2 12.2481 15.22C12.2481 12.81 10.1181 10.84 7.49806 10.84Z" fill="#21B580"/>
</svg>
