<svg width="64" height="64" viewBox="0 0 64 64" fill="none" xmlns="http://www.w3.org/2000/svg">
<path d="M45.3333 58.6666H18.6666C17.5733 58.6666 16.6666 57.7599 16.6666 56.6666C16.6666 55.5733 17.5733 54.6666 18.6666 54.6666H45.3333C46.4266 54.6666 47.3333 55.5733 47.3333 56.6666C47.3333 57.7599 46.4266 58.6666 45.3333 58.6666ZM54.2666 14.7199L43.6 22.3466C42.1866 23.3599 40.16 22.7466 39.5466 21.1199L34.5066 7.67994C33.6533 5.35994 30.3733 5.35994 29.52 7.67994L24.4533 21.0933C23.84 22.7466 21.84 23.3599 20.4266 22.3199L9.75997 14.6933C7.62664 13.1999 4.79997 15.3066 5.67997 17.7866L16.7733 48.8533C17.1466 49.9199 18.16 50.6133 19.28 50.6133H44.6933C45.8133 50.6133 46.8266 49.8933 47.2 48.8533L58.2933 17.7866C59.2 15.3066 56.3733 13.1999 54.2666 14.7199ZM38.6666 39.3333H25.3333C24.24 39.3333 23.3333 38.4266 23.3333 37.3333C23.3333 36.2399 24.24 35.3333 25.3333 35.3333H38.6666C39.76 35.3333 40.6666 36.2399 40.6666 37.3333C40.6666 38.4266 39.76 39.3333 38.6666 39.3333Z" fill="white"/>
</svg>
