<svg width="64" height="64" viewBox="0 0 64 64" fill="none" xmlns="http://www.w3.org/2000/svg">
<path fill-rule="evenodd" clip-rule="evenodd" d="M42.3467 55.7866C42.4267 56.2132 42.1867 56.6666 41.7867 56.8266C38.7733 58.0266 35.4667 58.6666 32.0533 58.6666C26.16 58.6666 20.72 56.7732 16.32 53.5199C15.9467 53.2532 15.84 52.7199 16.08 52.3199C17.5467 49.7066 23.28 41.3066 35.9467 36.6132C36.4267 36.4266 36.96 36.6666 37.12 37.1466C40.2933 45.6532 41.7867 52.8532 42.3467 55.7866ZM58.1867 37.0346C56.9637 43.4848 53.379 49.2469 48.1333 53.1946C47.5733 53.6212 46.7733 53.3012 46.64 52.6346C46.08 49.7546 44.72 43.5412 42.1067 36.1546C41.92 35.5946 42.2933 34.9812 42.88 34.9012C49.52 34.1012 55.3333 35.3812 57.52 35.9679C57.9733 36.1279 58.2667 36.5812 58.1867 37.0346ZM57.5733 31.5172C54.8533 31.0372 47.92 30.0239 40.8267 30.7972C40.4 30.8506 40.0266 30.6106 39.84 30.2106C39.7333 29.9706 39.6533 29.7306 39.5467 29.4906C39.12 28.5039 38.6667 27.4906 38.2133 26.5039C37.9733 26.0239 38.2133 25.4372 38.6933 25.2239C46.16 21.9972 50.32 17.8372 51.9467 15.9706C52.3467 15.5172 53.04 15.5439 53.4133 16.0239C56.5605 20.2133 58.3893 25.2448 58.6667 30.4772C58.6933 31.1439 58.16 31.6239 57.5733 31.5172ZM49.1733 12.7786C47.7867 14.4586 43.8933 18.4586 36.5067 21.3919C36.2929 21.4782 36.0548 21.4824 35.8381 21.4036C35.6215 21.3249 35.4417 21.1687 35.3333 20.9652C32.6898 16.2256 29.7784 11.6404 26.6133 7.2319C26.2133 6.6719 26.5333 5.8719 27.2 5.76523C28.7467 5.49857 30.3733 5.36523 32.0267 5.36523C38.48 5.36523 44.4267 7.65857 49.04 11.4986C49.44 11.7919 49.4933 12.3786 49.1733 12.7786ZM29.3867 23.5732C19.28 26.1066 10.3467 26.4532 7.09332 26.5066C6.47999 26.5066 6.02665 25.9199 6.18665 25.3332C8.10665 17.8666 13.2267 11.6266 19.9733 8.18657C20.3733 7.97323 20.88 8.10657 21.1467 8.4799C22.5333 10.3999 26.2933 15.8132 29.9733 22.1866C30.2667 22.7199 30 23.4132 29.3867 23.5732ZM34.4533 30.9306C34.6933 31.4372 34.4 32.0506 33.8667 32.2372C22.0533 36.0506 14.9867 45.5172 12.8533 48.7706C12.5067 49.3039 11.76 49.3306 11.36 48.8506C7.62665 44.2639 5.35999 39.0106 5.35999 32.6372V32.1572C5.35999 31.6239 5.78665 31.1972 6.31999 31.2239C9.67999 31.3572 20.64 30.9039 32.0267 27.6239C32.4533 27.4906 32.9333 27.7039 33.12 28.1039C33.5733 29.0372 34.0267 29.9706 34.4533 30.9306Z" fill="white"/>
</svg>
