<svg width="64" height="64" viewBox="0 0 64 64" fill="none" xmlns="http://www.w3.org/2000/svg">
<path d="M59.5734 24.8799L54.24 22.2133C53.2534 21.7333 52.0267 22.1066 51.5467 23.0933C51.04 24.1066 51.44 25.3066 52.4267 25.7866L56.6667 27.8933V40.6666L46.6667 40.6932V13.3333C46.6667 7.99992 43.0934 5.33325 38.6667 5.33325H17.3334C12.9067 5.33325 9.33337 7.99992 9.33337 13.3333V56.6666H5.33337C4.24004 56.6666 3.33337 57.5732 3.33337 58.6666C3.33337 59.7599 4.24004 60.6666 5.33337 60.6666H50.6667C51.76 60.6666 52.6667 59.7599 52.6667 58.6666C52.6667 57.5732 51.76 56.6666 50.6667 56.6666H46.6667V44.6932L58.6667 44.6666C59.7867 44.6666 60.6667 43.7599 60.6667 42.6666V26.6666C60.6645 26.2974 60.5614 25.9359 60.3688 25.6211C60.1761 25.3062 59.901 25.0499 59.5734 24.8799ZM16 18.3733C16 14.6666 18.2667 13.3333 21.04 13.3333H34.9867C37.7334 13.3333 40 14.6666 40 18.3733V21.6532C40 25.3333 37.7334 26.6666 34.96 26.6666H21.04C18.2667 26.6666 16 25.3333 16 21.6266V18.3733ZM17.3334 32.6666H25.3334C26.4267 32.6666 27.3334 33.5732 27.3334 34.6666C27.3334 35.7599 26.4267 36.6666 25.3334 36.6666H17.3334C16.24 36.6666 15.3334 35.7599 15.3334 34.6666C15.3334 33.5732 16.24 32.6666 17.3334 32.6666Z" fill="white"/>
</svg>
