<svg width="64" height="64" viewBox="0 0 64 64" fill="none" xmlns="http://www.w3.org/2000/svg">
<path d="M50.1573 16.6666H53.784C53.2773 15.9466 52.744 15.2799 52.184 14.6132L50.1573 16.6666ZM49.3867 11.7866C48.72 11.2266 48.0533 10.6932 47.3333 10.1866V13.8132L49.3867 11.7866ZM52.2133 14.6159L60.08 6.74925C60.8533 5.97591 60.8533 4.69591 60.08 3.92258C59.7036 3.55063 59.1958 3.34204 58.6667 3.34204C58.1375 3.34204 57.6297 3.55063 57.2533 3.92258L49.3867 11.7892C50.4 12.6692 51.3333 13.6292 52.2133 14.6159ZM47.3387 7.99991C47.3387 6.90658 46.432 5.99991 45.3387 5.99991C44.272 5.99991 43.4187 6.85325 43.3653 7.89325C44.752 8.55991 46.0853 9.30658 47.3387 10.1866V7.99991ZM58.0053 18.6666C58.0053 17.5732 57.0987 16.6666 56.0053 16.6666H53.792C54.672 17.9199 55.4453 19.2532 56.0853 20.6399C57.152 20.5866 58.0053 19.7332 58.0053 18.6666ZM34 39.3332H34.8C35.84 39.3332 36.6667 38.3999 36.6667 37.2532C36.6667 35.8132 36.2667 35.5999 35.36 35.2799L34 34.7999V39.3332Z" fill="#21B580"/>
<path d="M56.1067 20.6399C56.08 20.6399 56.0533 20.6666 56 20.6666H45.3333C45.0667 20.6666 44.8267 20.6133 44.56 20.5066C44.0689 20.2957 43.6775 19.9043 43.4667 19.4133C43.3815 19.1734 43.3364 18.9211 43.3333 18.6666V7.99992C43.3333 7.97325 43.36 7.94659 43.36 7.89325C39.8933 6.26659 36.0533 5.33325 32 5.33325C17.28 5.33325 5.33333 17.2799 5.33333 31.9999C5.33333 46.7199 17.28 58.6666 32 58.6666C46.72 58.6666 58.6667 46.7199 58.6667 31.9999C58.6667 27.9466 57.7333 24.1066 56.1067 20.6399ZM36.6667 31.5199C38.3733 32.1066 40.6667 33.3599 40.6667 37.2799C40.6667 40.6132 38.0267 43.3599 34.8 43.3599H34V44.0266C34 45.1199 33.0933 46.0266 32 46.0266C30.9067 46.0266 30 45.1199 30 44.0266V43.3599H29.7867C26.24 43.3599 23.3333 40.3732 23.3333 36.6933C23.3333 35.5733 24.24 34.6666 25.3333 34.6666C26.4267 34.6666 27.3333 35.5732 27.3333 36.6666C27.3333 38.1333 28.4267 39.3332 29.7867 39.3332H30V33.4132L27.3333 32.4799C25.6267 31.8933 23.3333 30.6399 23.3333 26.7199C23.3333 23.3866 25.9733 20.6399 29.2 20.6399H30V19.9999C30 18.9066 30.9067 17.9999 32 17.9999C33.0933 17.9999 34 18.9066 34 19.9999V20.6666H34.2133C37.76 20.6666 40.6667 23.6533 40.6667 27.3333C40.6667 28.4266 39.76 29.3333 38.6667 29.3333C37.5733 29.3333 36.6667 28.4266 36.6667 27.3333C36.6667 25.8666 35.5733 24.6666 34.2133 24.6666H34V30.5866L36.6667 31.5199Z" fill="#21B580"/>
<path d="M27.3333 26.7467C27.3333 28.1867 27.7333 28.4001 28.64 28.7201L30 29.2001V24.6667H29.2C28.1867 24.6667 27.3333 25.6001 27.3333 26.7467Z" fill="#21B580"/>
</svg>
