<svg width="25" height="24" viewBox="0 0 25 24" fill="none" xmlns="http://www.w3.org/2000/svg">
<path opacity="0.4" d="M2.79999 12.881V11.121C2.79999 10.081 3.64999 9.221 4.69999 9.221C6.50999 9.221 7.24999 7.941 6.33999 6.371C5.81999 5.471 6.12999 4.301 7.03999 3.781L8.76999 2.791C9.55999 2.321 10.58 2.601 11.05 3.391L11.16 3.581C12.06 5.151 13.54 5.151 14.45 3.581L14.56 3.391C15.03 2.601 16.05 2.321 16.84 2.791L18.57 3.781C19.48 4.301 19.79 5.471 19.27 6.371C18.36 7.941 19.1 9.221 20.91 9.221C21.95 9.221 22.81 10.071 22.81 11.121V12.881C22.81 13.921 21.96 14.781 20.91 14.781C19.1 14.781 18.36 16.061 19.27 17.631C19.79 18.541 19.48 19.701 18.57 20.221L16.84 21.211C16.05 21.681 15.03 21.401 14.56 20.611L14.45 20.421C13.55 18.851 12.07 18.851 11.16 20.421L11.05 20.611C10.58 21.401 9.55999 21.681 8.76999 21.211L7.03999 20.221C6.60409 19.97 6.28557 19.5563 6.15433 19.0708C6.0231 18.5852 6.08987 18.0674 6.33999 17.631C7.24999 16.061 6.50999 14.781 4.69999 14.781C3.64999 14.781 2.79999 13.921 2.79999 12.881Z" fill="#878F96"/>
<path d="M12.8 15.25C13.6619 15.25 14.4886 14.9076 15.0981 14.2981C15.7076 13.6886 16.05 12.862 16.05 12C16.05 11.138 15.7076 10.3114 15.0981 9.7019C14.4886 9.09241 13.6619 8.75 12.8 8.75C11.938 8.75 11.1114 9.09241 10.5019 9.7019C9.8924 10.3114 9.54999 11.138 9.54999 12C9.54999 12.862 9.8924 13.6886 10.5019 14.2981C11.1114 14.9076 11.938 15.25 12.8 15.25Z" fill="#878F96"/>
</svg>
