<svg width="64" height="64" viewBox="0 0 64 64" fill="none" xmlns="http://www.w3.org/2000/svg">
<path d="M55.5467 21.36L38.08 7.38663C34.6667 4.66663 29.3333 4.63997 25.9467 7.35997L8.48 21.36C5.97334 23.36 4.45334 27.36 4.98667 30.5066L8.34667 50.6133C9.12 55.12 13.3067 58.6666 17.8667 58.6666H46.1333C50.64 58.6666 54.9067 55.04 55.68 50.5866L59.04 30.48C59.52 27.36 58 23.36 55.5467 21.36ZM34 48C34 49.0933 33.0933 50 32 50C30.9067 50 30 49.0933 30 48V40C30 38.9066 30.9067 38 32 38C33.0933 38 34 38.9066 34 40V48Z" fill="white"/>
</svg>
