<svg width="64" height="64" viewBox="0 0 64 64" fill="none" xmlns="http://www.w3.org/2000/svg">
<path d="M51.3066 14.8773H50.24L41.2266 5.864C40.8745 5.51776 40.4005 5.32373 39.9066 5.32373C39.4128 5.32373 38.9388 5.51776 38.5866 5.864C37.8666 6.584 37.8666 7.75733 38.5866 8.504L44.96 14.8773H19.04L25.4133 8.504C26.1333 7.784 26.1333 6.61067 25.4133 5.864C25.0612 5.51776 24.5871 5.32373 24.0933 5.32373C23.5995 5.32373 23.1254 5.51776 22.7733 5.864L13.7866 14.8773H12.72C10.32 14.8773 5.33331 14.8773 5.33331 21.704C5.33331 24.2907 5.86665 25.9973 6.98665 27.1173C7.62665 27.784 8.39998 28.1307 9.22665 28.3173C9.99998 28.504 10.8266 28.5307 11.6266 28.5307H52.3733C53.2 28.5307 53.9733 28.4773 54.72 28.3173C56.96 27.784 58.6666 26.184 58.6666 21.704C58.6666 14.8773 53.68 14.8773 51.3066 14.8773ZM50.8 32H12.9866C11.3333 32 10.08 33.4667 10.3466 35.0933L12.5866 48.8C13.3333 53.3867 15.3333 58.6667 24.2133 58.6667H39.1733C48.16 58.6667 49.76 54.16 50.72 49.12L53.4133 35.1733C53.4894 34.7876 53.479 34.3897 53.3829 34.0085C53.2867 33.6272 53.1072 33.272 52.8572 32.9685C52.6073 32.665 52.2931 32.4207 51.9374 32.2532C51.5816 32.0858 51.1932 31.9993 50.8 32ZM32 52C28.9964 51.993 26.1178 50.7967 23.9939 48.6728C21.87 46.5489 20.6737 43.6703 20.6666 40.6667C20.6666 39.5733 21.5733 38.6667 22.6666 38.6667C23.76 38.6667 24.6666 39.5733 24.6666 40.6667C24.6666 44.72 27.9466 48 32 48C36.0533 48 39.3333 44.72 39.3333 40.6667C39.3333 39.5733 40.24 38.6667 41.3333 38.6667C42.4266 38.6667 43.3333 39.5733 43.3333 40.6667C43.3263 43.6703 42.13 46.5489 40.0061 48.6728C37.8822 50.7967 35.0036 51.993 32 52Z" fill="white"/>
</svg>
