<svg width="1024" height="1024" viewBox="0 0 1024 1024" fill="none" xmlns="http://www.w3.org/2000/svg">
<g clip-path="url(#clip0_1_1289)">
<rect width="1024" height="1024" fill="#13151D"/>
<g opacity="0.3" filter="url(#filter0_f_1_1289)">
<circle cx="1024" r="796" fill="#21B580"/>
</g>
<path fill-rule="evenodd" clip-rule="evenodd" d="M511.784 149.743L644.371 226.292L621.947 265.132L534.208 214.476V809.524L584.879 780.269V374.652H629.727V754.376L679.858 725.433V444.727H724.707V699.54L780.659 667.235V356.765L679.966 298.63L702.39 259.79L825.508 330.872V693.129L511.784 874.257L198.061 693.129V330.872L304.36 269.5L326.784 308.34L242.909 356.765V667.235L298.754 699.477V444.727H343.602V725.371L394.273 754.625V374.652H439.121V780.518L489.36 809.524V214.476L401.622 265.132L379.197 226.292L511.784 149.743Z" fill="white"/>
</g>
<defs>
<filter id="filter0_f_1_1289" x="-372" y="-1396" width="2792" height="2792" filterUnits="userSpaceOnUse" color-interpolation-filters="sRGB">
<feFlood flood-opacity="0" result="BackgroundImageFix"/>
<feBlend mode="normal" in="SourceGraphic" in2="BackgroundImageFix" result="shape"/>
<feGaussianBlur stdDeviation="300" result="effect1_foregroundBlur_1_1289"/>
</filter>
<clipPath id="clip0_1_1289">
<rect width="1024" height="1024" fill="white"/>
</clipPath>
</defs>
</svg>
