<svg width="24" height="24" viewBox="0 0 24 24" fill="none" xmlns="http://www.w3.org/2000/svg">
<path d="M15 22.75H9C3.57 22.75 1.25 20.43 1.25 15V9C1.25 3.57 3.57 1.25 9 1.25H15C20.43 1.25 22.75 3.57 22.75 9V15C22.75 20.43 20.43 22.75 15 22.75ZM9 2.75C4.39 2.75 2.75 4.39 2.75 9V15C2.75 19.61 4.39 21.25 9 21.25H15C19.61 21.25 21.25 19.61 21.25 15V9C21.25 4.39 19.61 2.75 15 2.75H9Z" fill="#B52156"/>
<path d="M17.899 9.79901H17.829C14.369 9.45901 10.929 9.31901 7.519 9.66901L6.179 9.79901C6.08107 9.80937 5.98207 9.80022 5.88771 9.77207C5.79334 9.74393 5.70549 9.69736 5.62924 9.63506C5.55299 9.57275 5.48984 9.49595 5.44346 9.40909C5.39707 9.32223 5.36836 9.22704 5.359 9.12901C5.33944 8.93149 5.39898 8.73427 5.52457 8.58057C5.65015 8.42687 5.83154 8.32922 6.029 8.30901L7.369 8.17901C10.879 7.82901 14.419 7.95901 17.979 8.30901C18.389 8.34901 18.689 8.71901 18.649 9.12901C18.609 9.50901 18.279 9.79901 17.899 9.79901Z" fill="#B52156"/>
<path d="M14.29 9.13996C14.1134 9.14028 13.9424 9.07827 13.807 8.96485C13.6716 8.85144 13.5806 8.69389 13.55 8.51996L13.41 7.66996C13.39 7.52996 13.35 7.30996 13.31 7.25996C13.31 7.25996 13.21 7.19996 12.85 7.19996H11.13C10.76 7.19996 10.66 7.25996 10.66 7.25996C10.64 7.29996 10.6 7.51996 10.58 7.65996L10.44 8.51996C10.4057 8.71497 10.2966 8.88888 10.136 9.00468C9.97535 9.12048 9.77588 9.16901 9.58001 9.13996C9.385 9.10563 9.21109 8.99654 9.09529 8.83592C8.97949 8.6753 8.93096 8.47583 8.96001 8.27996L9.10001 7.41996C9.21001 6.77996 9.39001 5.70996 11.13 5.70996H12.85C14.6 5.70996 14.78 6.82996 14.88 7.42996L15.02 8.27996C15.09 8.68996 14.81 9.07996 14.41 9.13996H14.29Z" fill="#B52156"/>
<path d="M14.1 18.3101H9.88999C7.35999 18.3101 7.24999 16.7901 7.17999 15.7801L6.74999 9.17011C6.73673 8.9712 6.80303 8.77517 6.9343 8.62514C7.06558 8.47511 7.25108 8.38337 7.44999 8.37011C7.6489 8.35685 7.84493 8.42315 7.99496 8.55443C8.14499 8.6857 8.23673 8.8712 8.24999 9.07011L8.67999 15.6701C8.74999 16.6501 8.75999 16.8001 9.88999 16.8001H14.1C15.23 16.8001 15.24 16.6501 15.31 15.6701L15.74 9.07011C15.77 8.66011 16.11 8.34011 16.54 8.37011C16.95 8.40011 17.27 8.75011 17.24 9.17011L16.81 15.7701C16.74 16.7901 16.64 18.3101 14.1 18.3101Z" fill="#B52156"/>
</svg>
