<svg width="25" height="24" viewBox="0 0 25 24" fill="none" xmlns="http://www.w3.org/2000/svg">
<path opacity="0.4" d="M17.4 7.75C17.21 7.75 17.02 7.68 16.87 7.53C16.7305 7.38886 16.6523 7.19843 16.6523 7C16.6523 6.80157 16.7305 6.61114 16.87 6.47L18.92 4.42C17.16 2.92 14.89 2 12.4 2C6.88002 2 2.40002 6.48 2.40002 12C2.40002 17.52 6.88002 22 12.4 22C17.92 22 22.4 17.52 22.4 12C22.4 9.51 21.48 7.24 19.98 5.48L17.93 7.53C17.78 7.68 17.59 7.75 17.4 7.75Z" fill="#878F96"/>
<path d="M14.15 11.82L13.15 11.47V9.25H13.23C13.74 9.25 14.15 9.7 14.15 10.25C14.15 10.66 14.49 11 14.9 11C15.31 11 15.65 10.66 15.65 10.25C15.65 8.87 14.57 7.75 13.23 7.75H13.15V7.5C13.15 7.09 12.81 6.75 12.4 6.75C11.99 6.75 11.65 7.09 11.65 7.5V7.75H11.35C10.14 7.75 9.15002 8.77 9.15002 10.03C9.15002 11.49 10 11.96 10.65 12.19L11.65 12.54V14.76H11.57C11.06 14.76 10.65 14.31 10.65 13.76C10.65 13.35 10.31 13.01 9.90002 13.01C9.49002 13.01 9.15002 13.35 9.15002 13.76C9.15002 15.14 10.23 16.26 11.57 16.26H11.65V16.51C11.65 16.92 11.99 17.26 12.4 17.26C12.81 17.26 13.15 16.92 13.15 16.51V16.26H13.45C14.66 16.26 15.65 15.24 15.65 13.98C15.65 12.51 14.8 12.04 14.15 11.82ZM11.14 10.76C10.8 10.64 10.65 10.57 10.65 10.02C10.65 9.59 10.97 9.24 11.35 9.24H11.65V10.93L11.14 10.76ZM13.45 14.75H13.15V13.06L13.66 13.24C14 13.36 14.15 13.43 14.15 13.98C14.15 14.4 13.83 14.75 13.45 14.75ZM23.088 1.708C23.0089 1.52384 22.8622 1.37708 22.678 1.298C22.5866 1.25803 22.4878 1.2376 22.388 1.238H18.388C17.978 1.238 17.638 1.578 17.638 1.988C17.638 2.398 17.978 2.738 18.388 2.738H20.578L18.908 4.408C19.288 4.738 19.638 5.088 19.968 5.468L21.638 3.798V5.998C21.638 6.408 21.978 6.748 22.388 6.748C22.798 6.748 23.138 6.408 23.138 5.998V1.998C23.148 1.898 23.128 1.808 23.088 1.708Z" fill="#878F96"/>
</svg>
