<svg width="64" height="64" viewBox="0 0 64 64" fill="none" xmlns="http://www.w3.org/2000/svg">
<path d="M20.4533 5.33326H15.4133C12.64 5.33326 10.1333 6.45326 8.29331 8.29326C6.45331 10.1333 5.33331 12.6399 5.33331 15.4133C5.33331 20.9599 9.86665 25.4933 15.4133 25.4933H17.92V45.6266C17.92 47.5733 19.04 49.2533 20.6666 50.0799C21.2731 50.4147 21.9458 50.6121 22.637 50.6582C23.3282 50.7043 24.0211 50.5979 24.6666 50.3466C26.6133 49.6533 28 47.8133 28 45.6266V12.8799C28 8.74659 24.5866 5.33326 20.4533 5.33326ZM15.4133 15.9199C16.5066 15.9199 17.4133 16.8266 17.4133 17.9199C17.4133 19.0133 16.5066 19.9199 15.4133 19.9199C12.9333 19.9199 10.9066 17.8933 10.9066 15.3866C10.9066 12.8799 12.9333 10.8799 15.4133 10.8799C16.5066 10.8799 17.4133 11.7866 17.4133 12.8799C17.4133 13.9733 16.5066 14.8799 15.4133 14.8799C15.2789 14.8799 15.1501 14.9333 15.055 15.0283C14.96 15.1233 14.9066 15.2522 14.9066 15.3866C14.9066 15.6533 15.12 15.9199 15.4133 15.9199ZM55.7066 8.29326C54.7743 7.35393 53.665 6.6087 52.4429 6.10064C51.2208 5.59258 49.9101 5.33176 48.5866 5.33326H43.5466C41.5473 5.34029 39.6319 6.13764 38.2181 7.55139C36.8044 8.96514 36.007 10.8806 36 12.8799V45.6266C36 47.8133 37.3866 49.6533 39.3333 50.3466C39.9789 50.5979 40.6718 50.7043 41.363 50.6582C42.0542 50.6121 42.7268 50.4147 43.3333 50.0799C44.96 49.2533 46.08 47.5733 46.08 45.6266V25.4933H48.5866C54.1333 25.4933 58.6666 20.9599 58.6666 15.4133C58.6666 12.6399 57.5466 10.1333 55.7066 8.29326ZM48.5866 19.9199C47.4933 19.9199 46.5866 19.0133 46.5866 17.9199C46.5866 16.8266 47.4933 15.9199 48.5866 15.9199C48.88 15.9199 49.0933 15.6799 49.0933 15.3866C49.0933 15.2522 49.0399 15.1233 48.9449 15.0283C48.8499 14.9333 48.721 14.8799 48.5866 14.8799C47.4933 14.8799 46.5866 13.9733 46.5866 12.8799C46.5866 11.7866 47.4933 10.8799 48.5866 10.8799C49.7854 10.8799 50.9351 11.3561 51.7828 12.2038C52.6304 13.0515 53.1066 14.2011 53.1066 15.3999C53.1066 16.5987 52.6304 17.7484 51.7828 18.596C50.9351 19.4437 49.7854 19.9199 48.5866 19.9199Z" fill="white"/>
<path d="M24.6667 50.3494V58.6694C24.6667 59.7628 23.76 60.6694 22.6667 60.6694C21.5734 60.6694 20.6667 59.7628 20.6667 58.6694V50.0828C21.2731 50.4177 21.9458 50.6152 22.637 50.6613C23.3282 50.7074 24.0212 50.6009 24.6667 50.3494ZM43.3334 50.0828V58.6694C43.3334 59.7628 42.4267 60.6694 41.3334 60.6694C40.24 60.6694 39.3334 59.7628 39.3334 58.6694V50.3494C39.9789 50.6009 40.6718 50.7074 41.363 50.6613C42.0543 50.6152 42.7269 50.4177 43.3334 50.0828Z" fill="white"/>
</svg>
