<svg width="64" height="64" viewBox="0 0 64 64" fill="none" xmlns="http://www.w3.org/2000/svg">
<path d="M30 48.6667H24C21.0667 48.6667 18.6667 51.0667 18.6667 54.0001V54.6667H16C14.9067 54.6667 14 55.5734 14 56.6667C14 57.7601 14.9067 58.6667 16 58.6667H48C49.0933 58.6667 50 57.7601 50 56.6667C50 55.5734 49.0933 54.6667 48 54.6667H45.3333V54.0001C45.3333 51.0667 42.9333 48.6667 40 48.6667H34V42.5601C33.3333 42.6401 32.6667 42.6667 32 42.6667C31.3333 42.6667 30.6667 42.6401 30 42.5601V48.6667Z" fill="white"/>
<path d="M49.28 31.0399C51.04 30.3733 52.5866 29.2799 53.8133 28.0533C56.2933 25.3066 57.92 22.0266 57.92 18.1866C57.92 14.3466 54.9066 11.3333 51.0666 11.3333H49.5733C48.7007 9.53613 47.3403 8.02058 45.6475 6.95964C43.9547 5.8987 41.9977 5.33512 40 5.33325H24C19.7866 5.33325 16.16 7.78659 14.4266 11.3333H12.9333C9.09329 11.3333 6.07996 14.3466 6.07996 18.1866C6.07996 22.0266 7.70662 25.3066 10.1866 28.0533C11.4133 29.2799 12.96 30.3733 14.72 31.0399C16.113 34.4797 18.5025 37.4246 21.5816 39.4964C24.6607 41.5681 28.2888 42.6721 32 42.6666C39.84 42.6666 46.5066 37.8666 49.28 31.0399ZM39.5733 22.5333L37.92 24.5599C37.6533 24.8533 37.4666 25.4399 37.4933 25.8399L37.6533 28.4533C37.76 30.0533 36.6133 30.8799 35.12 30.2933L32.6933 29.3333C32.2407 29.1999 31.7592 29.1999 31.3066 29.3333L28.88 30.2933C27.3866 30.8799 26.24 30.0533 26.3466 28.4533L26.5066 25.8399C26.5167 25.3767 26.366 24.9244 26.08 24.5599L24.4266 22.5333C23.3866 21.3066 23.84 19.9466 25.3866 19.5466L27.92 18.9066C28.32 18.7999 28.8 18.4266 29.0133 18.0799L30.4266 15.8933C31.3066 14.5333 32.6933 14.5333 33.5733 15.8933L34.9866 18.0799C35.2 18.4266 35.68 18.7999 36.08 18.9066L38.6133 19.5466C40.16 19.9466 40.6133 21.3066 39.5733 22.5333Z" fill="white"/>
</svg>
